<svg width="50" height="50" viewBox="0 0 50 50" fill="none" xmlns="http://www.w3.org/2000/svg">
<path d="M3.15353 27.2328C1.66429 15.1741 10.2325 4.19139 22.2912 2.70215C34.3498 1.21292 45.3325 9.78113 46.8218 21.8398C48.311 33.8984 39.7428 44.8812 27.6841 46.3704C15.6255 47.8596 4.64276 39.2914 3.15353 27.2328Z" fill="#D886FF"/>
<path d="M23.5699 14.5547C23.5578 14.4542 23.6288 14.3594 23.7293 14.347C23.8298 14.3346 23.9217 14.4093 23.9345 14.5097C24.9274 22.2961 27.1752 24.0497 34.9692 23.1185C35.0697 23.1064 35.1645 23.1774 35.1769 23.2779C35.1893 23.3784 35.1147 23.4703 35.0142 23.4831C27.2278 24.476 25.4742 26.7238 26.4055 34.5178C26.4175 34.6184 26.3465 34.7131 26.246 34.7255C26.1455 34.7379 26.0537 34.6633 26.0408 34.5628C25.048 26.7764 22.8001 25.0228 15.0061 25.9541C14.9056 25.9661 14.8108 25.8951 14.7984 25.7946C14.786 25.6941 14.8606 25.6023 14.9611 25.5894C22.7475 24.5966 24.5011 22.3487 23.5699 14.5547Z" stroke="white"/>
</svg>
