<svg width="128" height="122" viewBox="0 0 128 122" fill="none" xmlns="http://www.w3.org/2000/svg">
<path d="M50.2049 60.3291L51.7498 80.4792C51.7696 80.7376 51.843 80.989 51.9653 81.2175L53.5419 84.1624C53.8192 84.6804 54.3242 85.0376 54.905 85.1265L65.9759 86.8221C66.5566 86.911 67.1454 86.7214 67.565 86.3101L69.9507 83.9721C70.1358 83.7907 70.2811 83.5727 70.3773 83.3321L77.8822 64.5681M48.9665 65.3327L77.5663 69.7129M49.5025 71.0801L75.3347 75.0364M50.0386 76.8275L73.103 80.3599M78.9913 44.1864C73.932 41.6685 69.194 42.8934 66.9758 43.7556C65.1174 42.2688 60.9639 39.682 55.3816 40.5704C47.9889 41.7478 43.056 51.2228 47.4368 60.3773L80.4558 65.4252C87.4582 57.9046 85.5806 47.465 78.9913 44.1864Z" stroke="#017AFF" stroke-width="2"/>
</svg>
