<svg width="70" height="70" viewBox="0 0 70 70" fill="none" xmlns="http://www.w3.org/2000/svg">
<path d="M3.07942 31.8515C4.77979 14.2604 20.4186 1.37842 38.0098 3.07878C55.6009 4.77914 68.4829 20.418 66.7825 38.0091C65.0822 55.6002 49.4433 68.4822 31.8522 66.7819C14.2611 65.0815 1.37906 49.4427 3.07942 31.8515Z" fill="#FC7B33"/>
<circle cx="44.0058" cy="26.9665" r="3.5" transform="rotate(5.52108 44.0058 26.9665)" stroke="white"/>
<circle cx="27.0185" cy="25.3245" r="3.5" transform="rotate(5.52108 27.0185 25.3245)" stroke="white"/>
<path d="M45.3148 38.5797C44.526 43.8907 39.4752 47.727 33.747 47.1733C28.0188 46.6196 23.7963 41.887 24.0394 36.5232L45.3148 38.5797Z" stroke="white"/>
<path d="M36.5387 23.8336L32.6104 31.2134L34.9585 32.7898" stroke="white"/>
<path d="M28.8857 36.4893L28.7758 37.6269C28.6948 38.4645 29.1837 39.1972 29.8678 39.2633L31.1065 39.3831C31.7906 39.4492 32.4108 38.8237 32.4918 37.9861L32.6018 36.8485" stroke="white"/>
</svg>
