<svg width="72" height="72" viewBox="0 0 72 72" fill="none" xmlns="http://www.w3.org/2000/svg">
<path d="M6.36325 29.3174C9.87761 13.1258 25.8524 2.84895 42.0439 6.36331C58.2355 9.87767 68.5124 25.8525 64.998 42.044C61.4836 58.2355 45.5089 68.5124 29.3173 64.9981C13.1258 61.4837 2.84889 45.5089 6.36325 29.3174Z" fill="#017AFF"/>
<path d="M39.8766 32.8489C40.7766 32.9579 41.6229 33.0229 42.3933 33.0446" stroke="white"/>
<path d="M34.9629 31.9148C35.4371 32.0366 35.9246 32.1522 36.4228 32.2603C36.921 32.3684 37.4126 32.4654 37.8946 32.5512" stroke="white"/>
<path d="M30.666 30.4993C31.3758 30.7988 32.1726 31.0904 33.0365 31.3642" stroke="white"/>
<path d="M37.8659 25.6055L37.6524 25.412C36.757 24.6 34.7561 23.1817 31.9423 23.4528L37.8659 25.6055ZM37.8659 25.6055L38.1403 25.5179M37.8659 25.6055L38.1403 25.5179M38.1403 25.5179C39.292 25.1503 41.7011 24.6893 44.1487 26.1022L44.1488 26.1023M38.1403 25.5179L44.1488 26.1023M44.1488 26.1023C47.2056 27.8666 47.9664 33.252 44.1554 36.8691C42.2143 38.7113 41.6193 40.4104 41.0211 42.1184L41.0176 42.1285C40.5945 43.3365 40.1766 44.5234 39.3037 45.7647C38.9843 46.2188 38.6388 46.6615 38.2834 46.9659C37.919 47.2779 37.6423 47.3626 37.4283 47.3161L37.4155 47.3132L44.1488 26.1023ZM36.4208 45.0191L36.4208 45.0192C36.5365 45.8516 36.6922 46.4218 36.8795 46.7917C37.0599 47.1481 37.2431 47.2713 37.4148 47.3131L36.4208 45.0191ZM36.4208 45.0191C36.3067 44.1996 36.3221 43.25 36.3391 42.2816L36.3391 42.2816M36.4208 45.0191L36.3391 42.2816M36.3391 42.2816L36.3396 42.2532C36.3542 41.4141 36.3701 40.5083 36.2707 39.7871C36.2205 39.4229 36.136 39.0631 35.9811 38.7686C35.8211 38.4642 35.5613 38.1886 35.1617 38.1018L35.1572 38.1008L35.1537 38.1001M36.3391 42.2816L35.1537 38.1001M35.1537 38.1001C34.7541 38.0163 34.4033 38.1583 34.1297 38.3693C33.8649 38.5734 33.6377 38.8659 33.44 39.1769C33.0488 39.7925 32.6872 40.6235 32.3524 41.3929L32.3412 41.4187L32.3409 41.4193L35.1537 38.1001ZM29.2646 45.5405L29.2647 45.5405L29.2775 45.5431C29.2777 45.5432 29.278 45.5432 29.2782 45.5433C29.4526 45.5766 29.6706 45.5404 29.9822 45.2915C30.3057 45.0331 30.6833 44.5797 31.1331 43.8714C31.5769 43.172 31.9557 42.3045 32.3408 41.4197L29.2646 45.5405ZM29.2646 45.5405C29.0491 45.4937 28.8322 45.3017 28.6302 44.8679M29.2646 45.5405L28.6302 44.8679M28.6302 44.8679C28.433 44.4444 28.3023 43.8994 28.2 43.3546M28.6302 44.8679L28.2 43.3546M28.2 43.3546C27.9067 41.791 28.0259 40.536 28.1489 39.2621M28.2 43.3546L28.1489 39.2621M28.1489 39.2621L28.1496 39.2551M28.1489 39.2621L28.1496 39.2551M28.1496 39.2551C28.3191 37.499 28.4875 35.7539 27.4749 33.2534M28.1496 39.2551L27.4749 33.2534M27.4749 33.2534C25.5265 28.4394 28.3686 23.7977 31.9423 23.4528L27.4749 33.2534Z" stroke="white"/>
</svg>
